/* XPM */
static char *result[] = {
/* columns rows colors chars-per-pixel */
"64 64 245 2 ",
"   c #050309",
".  c #060712",
"X  c #13141B",
"o  c #111A23",
"O  c #172828",
"+  c #142E34",
"@  c #282728",
"#  c #28373B",
"$  c #35383A",
"%  c #2F2C30",
"&  c #18251C",
"*  c #463836",
"=  c #563B37",
"-  c #58362B",
";  c #753A33",
":  c #69322D",
">  c #33413E",
",  c #4E463C",
"<  c #724339",
"1  c #333D42",
"2  c #5F3B49",
"3  c #2B4344",
"4  c #3A4747",
"5  c #3E5254",
"6  c #474848",
"7  c #584A49",
"8  c #47554D",
"9  c #55534D",
"0  c #5A4854",
"q  c #485657",
"w  c #5A5856",
"e  c #4F4052",
"r  c #655858",
"t  c #714F53",
"y  c #5B625B",
"u  c #517152",
"i  c #69645A",
"p  c #6F714F",
"a  c #555B63",
"s  c #705865",
"d  c #5B6765",
"f  c #776865",
"g  c #767878",
"h  c #6C6F6D",
"j  c #903932",
"k  c #A53C35",
"l  c #B53D32",
"z  c #95433C",
"x  c #884539",
"c  c #A7443B",
"v  c #B84637",
"b  c #B7472F",
"n  c #C84739",
"m  c #D54F3A",
"M  c #ED4E3A",
"N  c #F24C3B",
"B  c #F54C38",
"V  c #E7523C",
"C  c #F3533D",
"Z  c #894744",
"A  c #994746",
"S  c #87504F",
"D  c #A44945",
"F  c #B94C45",
"G  c #BA5345",
"H  c #A85656",
"J  c #BA5856",
"K  c #B2504E",
"L  c #857A58",
"P  c #8C6E57",
"I  c #AF695B",
"U  c #8E5D66",
"Y  c #836968",
"T  c #857867",
"R  c #987968",
"E  c #887977",
"W  c #967A77",
"Q  c #896970",
"!  c #A96868",
"~  c #B76769",
"^  c #A87869",
"/  c #B97877",
"(  c #AD7472",
")  c #AD5D6A",
"_  c #CA4C47",
"`  c #D94E44",
"'  c #C85347",
"]  c #DC5644",
"[  c #C75755",
"{  c #D95957",
"}  c #E84E42",
"|  c #E95546",
" . c #F45645",
".. c #F4524A",
"X. c #CF685F",
"o. c #EB6551",
"O. c #D55B66",
"+. c #C96B6A",
"@. c #D56969",
"#. c #CA7877",
"$. c #D57A79",
"%. c #C76F6E",
"&. c #E7726E",
"*. c #E85961",
"=. c #5B914E",
"-. c #659855",
";. c #749755",
":. c #6E8751",
">. c #6DA35A",
",. c #6A817E",
"<. c #74A563",
"1. c #A2875B",
"2. c #89847C",
"3. c #998676",
"4. c #94906C",
"5. c #B88679",
"6. c #AE8872",
"7. c #AFAC7F",
"8. c #8F9461",
"9. c #C6867A",
"0. c #D28D77",
"q. c #E68079",
"w. c #74778A",
"e. c #5E7F8B",
"r. c #877787",
"t. c #967D8B",
"y. c #AF7786",
"u. c #CD7983",
"i. c #768985",
"p. c #6A8790",
"a. c #888886",
"s. c #978685",
"d. c #988798",
"f. c #9C968D",
"g. c #A68986",
"h. c #B78887",
"j. c #A89689",
"k. c #B6958B",
"l. c #A98A98",
"z. c #A99695",
"x. c #B99797",
"c. c #B48992",
"v. c #8EAA8E",
"b. c #ACA59A",
"n. c #B3AF92",
"m. c #8F91AE",
"M. c #A899A8",
"N. c #B89BA6",
"B. c #AC9BB2",
"V. c #9AA3B8",
"C. c #A6A4BA",
"Z. c #B8ACAE",
"A. c #C68787",
"S. c #D58787",
"D. c #C99489",
"F. c #D79788",
"G. c #C89898",
"H. c #D69796",
"J. c #CB8A93",
"K. c #E49595",
"L. c #CAA897",
"P. c #D3A897",
"I. c #D0AC95",
"U. c #E8B69D",
"Y. c #ECAF96",
"T. c #C999A8",
"R. c #C8A6A9",
"E. c #D6A6A7",
"W. c #CAB9AB",
"Q. c #D9B5A7",
"!. c #C8B7B5",
"~. c #DAB6B7",
"^. c #D2A9B2",
"/. c #E8BBA4",
"(. c #E4B9B7",
"). c #E8AFAA",
"_. c #B8C793",
"`. c #CCCA9C",
"'. c #DBC6A9",
"]. c #D7C5B8",
"[. c #DDD6B8",
"{. c #CCC5B8",
"}. c #EBC8A9",
"|. c #F5C7AA",
" X c #E9CBB7",
".X c #EAD4B7",
"XX c #F6D6B8",
"oX c #F4D0AE",
"OX c #F1E2BB",
"+X c #9B9DC2",
"@X c #9CA8C6",
"#X c #A5AAC9",
"$X c #A9B2CA",
"%X c #B5B7C9",
"&X c #ACB6D4",
"*X c #BCBDD3",
"=X c #B4B9D4",
"-X c #ACACCD",
";X c #A49CC4",
":X c #C7B9D3",
">X c #CEB7C5",
",X c #E6BCC9",
"<X c #BAC5D9",
"1X c #BFC8E3",
"2X c #C8C4C9",
"3X c #D5C5C9",
"4X c #D9D4CA",
"5X c #C6C8D9",
"6X c #D5CBD7",
"7X c #D8D6D9",
"8X c #CED3D7",
"9X c #E7CAC7",
"0X c #E8D9C8",
"qX c #F8DAC2",
"wX c #E7DAD9",
"eX c #F3DCD8",
"rX c #EAC8D0",
"tX c #FBE5CB",
"yX c #F7E6CA",
"uX c #EBE4D3",
"iX c #E9E6DC",
"pX c #FCECD4",
"aX c #F4ECDC",
"sX c #FBEEDA",
"dX c #F4E8D4",
"fX c #FCF1D5",
"gX c #FCF2DC",
"hX c #F5F3DB",
"jX c #F1E8C9",
"kX c #C8CDE2",
"lX c #CBD3E5",
"zX c #DBDBE3",
"xX c #D6D6E5",
"cX c #D0CBE1",
"vX c #E4DCE5",
"bX c #DCE4E6",
"nX c #EAE7E6",
"mX c #F6EBE6",
"MX c #FAF3ED",
"NX c #F8F2E5",
"BX c #FBF3F3",
"VX c #F7F3F2",
"CX c #EDECF3",
"ZX c #D7E0D1",
"AX c None",
/* pixels */
"AXAXAXAXAXAXAXAXAXAXAXAXAXAXAXAXAXAXAXAXAXAXAXAXAXAXAXAXAXAXAXAXAXAXAXAXAXAXAXAXAXAXAXAXAXAXAXAXAXAXAXAXAXAXAXAXAXAXAXAXAXAXAXAX",
"AXAXAXAXAXAXAXAXAXAXAXAXAXAXAXAXAXAXAXAXAXAXAXAXAXAXAXAXAXAXAXAXp.p.p.e.p.AXAXAXAXAXAXAXAXAXAXAXAXAXAXAXAXAXAXAXAXAXAXAXAXAXAXAX",
"AXAXAXAXAXAXAXAXAXAXAXAXAXAXAXAXAXAXAXAXAXAXAXAXAXAXAXAXAXAXq a h d q # 5 d d AXAXAXAXAXAXAXAXAXAXAXAXAXAXAXAXAXAXAXAXAXAXAXAXAX",
"AXAXAXAXAXAXAXAXAXAXAXAXAXAX0 0 2 t s r AXAXAXAXAXAXAXAXAX3 $ r Y 7 9 O # f r d AXAXAXAXAXAXAXAXAXAXAXAXAXAXAXAXAXAXAXAXAXAXAXAX",
"AXAXAXAXAXAXAXAXAXAXAXAXt Z D F [ J J H ! Q AXAXAXAXAXe.3 O 6 7 f w , O % f s e q AXAXAXAXAXAXAXAXAXAXAXAXAXAXAXAXAXAXAXAXAXAXAX",
"AXAXAXAXAXAXAXAXAXAX0 S F } *.` n v v G J 5.C.AXAXAXAXh 4 % 6 6 w y 8 + 1 0 0 9 i ,.AXAXAXAXAXAXAXAXAXAXAXAXAXAXAXAXAXAXAXAXAXAX",
"AXAXAXAXAXAXAXAXAXt A ' m M n l b _ | ` +.I.>X%XV.AXq 0 g 9 @ 6 8 6 # # # q 9 9 i f AXAXAXAXAXAXAXAXAXAXAXAXAXAXAXAXAXAXAXAXAXAX",
"AXAXAXAXAXAXAXAXs Z F } n l n ` | | | &.q.S.G.R.Z.a.1 1 s t $ O 3 # # + # 3 9 i T i AXAXAXAXAXAXAXAXAXAXAXAXAXAXAXAXAXAXAXAXAXAX",
"AXAXAXAXAXAXAXAXt j F F k _ } } | o.o.Y.K.{ J D.G.W @ O 6 9 6 > 8 d a a 8 # > i r 9 y AXAXAXAXAXAXAXAXAXAXAXAXAXAXAXAXAXAXAXAXAX",
"AXAXAXAXAXAXAXAXZ z k j _ } M N |  .o.&.&.n _ &.q./ * O # @ $ g h 2.f s.g w d 4 # $ q AXAXAXAXAXAXAXAXAXAXAXAXAXAXAXAXAXAXAXAXAX",
"AXAXAXAXAXAXAXt z Z : n } B N B N V N ..m G  .o.&.X.t O + o 4 g i T 4.k.W i h d # # 5 AXAXAXAXAXAXAXAXAXAXAXAXAXAXAXAXAXAXAXAXAX",
"AXAXAXAXAXAXAXt z ; j ` M B N N B B V m l { |  .] ' D + + # 2.b.n.j.L.I.j.z.z.a.h 9 d AXAXAXAXAXAXAXAXAXAXAXAXAXAXAXAXAXAXAXAXAX",
"AXAXAXAXAXAXAXS j : k ` M N N M M N V b m  . . .] G D > O i b.3.s.].XX.XL.2.f.Z.2.i h AXAXAXAXAXAXAXAXAXAXAXAXAXAXAXAXAXAXAXAXAX",
"AXAXAXAXAXAXAXs : j k _ } N N M M M n l | C  .C ] m D , , j.k.g a.uXfXpX[.f f.{.n.,.d AXAXAXAXAXAXAXAXAXAXAXAXAXAXAXAXAXAXAXAXAX",
"AXAXAXAXAXAXAX2 - j k l ` } M M M n v } C V C  .m ' S 9 P '.XX].4XaXpXhXuX4XuXaXb.2.h AXAXAXAXAXAXAXAXAXAXAXAXAXAXAXAXAXAXAXAXAX",
"AXAXAXAXAXAXAXe = A k l n } } } n b V  .C C  .| m G < r W /.XXpXsXsXyXgXhXgXNXuXj.r d AXAXAXAXAXAXAXAXAXAXAXAXAXAXAXAXAXAXAXAXAX",
"AXAXAXAXAXAXAXAX* A D k l n V n l ] C C C }  .| v J , 6 W P.oXOXsXpX X0XaXgXgX0Xf., a AXAXAXAXAXAXAXAXAXAXAXAXAXAXAXAXAXAXAXAXAX",
"AXAXAXAXAXAXAXAX3 ; j D l l k k _ ] | C  . .] G A Z r @ Y L.oXOXpXpX9X XpXgXhXb.8 6 d i.AXAXAXAXAXAXAXAXAXAXAXAXAXAXAXAXAXAXAXAX",
"AXAXAXAXAXAXAXAXAX= ; A D j j c b v m ] m m c x 7 7 s o X = Y.XXpXjXoX X0XgXaXq & 4 d i.AXAXAXAXAXAXAXAXAXAXAXAXAXAXAXAXAXAXAXAX",
"AXAXAXAXAXAXAXAXAXAX= - : x c l v b v v z x < t * 7 a X     P  XtXpX0X0XsXNXb.& + > w i.AXAXAXAXAXAXAXAXAXAXAXAXAXAXAXAXAXAXAXAX",
"AXAXAXAXAXAXAXAXAXAXAX2 - x A D D z z z < - i i 6 6 6 .     @ L.XXyXfXfXNXZ.@ . + > q ,.AXAXAXAXAXAXAXAXAXAXAXAXAXAXAXAXAXAXAXAX",
"AXAXAXAXAXAXAXAXAXAXAXj.1.t ; ; < : - - i ,.AXa q 1 1 .     - L.0.}.yXjX0Xi     o + 8 ,.AXAXAXAXAXAXAXAXAXAXAXAXAXAXAXAXAXAXAXAX",
"AXAXAXAXAXAXAXAXAXAXAXAXR.~.P.5.6.1.I ^ Q.0XAX3 % $ # o     % /.0.0.D.F..Xf   . . + 5 u v.AXAXAXAXAXAXAXAXAXAXAXAXAXAXAXAXAXAXAX",
"AXAXAXAXAXAXAXAXAXAXAXAXAXAX'..XOXtXOX}.oXjXAX4 @ 6 # o .   * oXY.0.0.}.tXE   . . o 3 q i.AXAXAXAXAXAXAXAXAXAXAXAXAXAXAXAXAXAXAX",
"AXAXAXAXAXAXAXAXAXAXAXAXAXAXAXAX}.qXpXyXjXAXAX> $ * O X . @ 6.oX|.Y.Y.XXpXn.X .     & 4 ,.AXAXAXAXAXAXAXAXAXAXAXAXAXAXAXAXAXAXAX",
"AXAXAXAXAXAXAXAXAXAXAXAXAXAXAXAXn.}.yXfXjXAXAXi , , @ w 0 g..XoX|.|.|.oXtXdXz.9 & * > * d i.AXAXAXAXAXAXAXAXAXAXAXAXAXAXAXAXAXAX",
"AXAXAXAXAXAXAXAXAXAXAXAXAXAXAXAXAX'.fXfX[.n.4XuX0X4.i s.y.R U.oX|.U.U.oXqXhXhXn.p R h.t.3.a.AXAXAXAXAXAXAXAXAXAXAXAXAXAXAXAXAXAX",
"AXAXAXAXAXAXAXAXAXAXAXAXAXAXAXAXAXU.pXyXXX.XhXsXgXOXL E W ! 0.U.oXU././..X.X[._.;.p D.E.G.( AXAXAXAXAXAXAXAXAXAXAXAXAXAXAXAXAXAX",
"AXAXAXAXAXAXAXAXAXAXAXAXAXAXAXAXAX/.tXsXXXXXpXNXNXjX4.T g.( 9.|.XXyXyXyX.XpXfX`.;.p j.).S.A.~.AXAXAXAXAXAXAXAXAXAXAXAXAXAXAXAXAX",
"AXAXAXAXAXAXAXAXAXAXAXAXAXAXAXAXn.}.tXsX.XtXpXNXgXjX4.Y l.c./ U.XXpXfXhXhXsXNX_.;.T L.3XD.9.9XAXAXAXAXAXAXAXAXAXAXAXAXAXAXAXAXAX",
"AXAXAXAXAXAXAXAXAXAXAXAXAXAXAXAXL..XgXsXXXtXgXgXfXOX4.U r.c.y.0.XXtXfXhXhXfXpXn.=.T Q.eXx.9.}.0XAXAXAXAXAXAXAXAXAXAXAXAXAXAXAXAX",
"AXAXAXAXAXAXAXAXAXAXAXAXAXAXAXAX'.XXgXsXXXfXgXfXOXoXL Y r.l.h.^ Q.qXpXgXpXfX[.-.=.T W.eXc.9.U.uXAXAXAXAXAXAXAXAXAXAXAXAXAXAXAXAX",
"AXAXAXAXAXAXAXAXAXAXAXAXAXAXAXAX XtXgXpXyXfXgXtXoX}.L f E M.l.6.R '.OXfXtXOX7.-.:.4.].nXN.9.P.0XAXAXAXAXAXAXAXAXAXAXAXAXAXAXAXAX",
"AXAXAXAXAXAXAXAXAXAXAXAXAXAXAXAXXXpXgXpXuXNXfXXX|.}.p f t.B.N.S.P 4._._.7.;.>.<.p 3.{.eX2X5.U.eXAXAXAXAXAXAXAXAXAXAXAXAXAXAXAXAX",
"AXAXAXAXAXAXAXAXAXAXAXAXAXAXAX}.XXgXpXyXuXgXtXU.Y.7.p g d.B.N.H.^ :.>.=.-.-.>.-.3.j.4XwX3XR /.aXAXAXAXAXAXAXAXAXAXAXAXAXAXAXAXAX",
"AXAXAXAXAXAXAXAXAXAXAXAXAXAXAX}.jXNXfXyXdXfXXXF.0.8.p s.M.=X-X^.D.p 8.=.>.>.:.g k.^.bX6X7X6.|.mXAXAXAXAXAXAXAXAXAXAXAXAXAXAXAXAX",
"AXAXAXAXAXAXAXAXAXAXAXAXAXAXAXOXtXgXfXyXuXpX/.0.0.8.p 3.C.*X5X>Xx.6.1.L p p 8.g.x.7XCX7X8XR.[.iXAXAXAXAXAXAXAXAXAXAXAXAXAXAXAXAX",
"AXAXAXAXAXAXAXAXAXAXAXAXAXAX X.XyXfXgXdXjXpXP.1.8.:.h b.C.<XvXnX!.h.F.9.1.1.h.x.wXbXbXvX!.4X4XiXAXAXAXAXAXAXAXAXAXAXAXAXAXAXAXAX",
"AXAXAXAXAXAXAXAXAXAXAXAXAXAX.XOXfXpXNXtXjXyX4.u :.p 4.M.V.kXnXaXMX3X~.E.G.c.R.rXnX7X8XCX3X7XwXAXAXAXAXAXAXAXAXAXAXAXAXAXAXAXAXAX",
"AXAXAXAXAXAXAXAXAXAXAXAXAXAXXXpXgXgXgXdX0X[.w u u p f.C.#XkXiX7XCXbXxXmXwX!.aXnXCX8X8XnXwXiX~.AXAXAXAXAXAXAXAXAXAXAXAXAXAXAXAXAX",
"AXAXAXAXAXAXAXAXAXAXAXAXAX XoXgXgXgXfXdXjXW.q u y f z.>X#XkXzX4X7XCX5XnXmXrXnXnXbX7XnX7XnXnXc.s.AXAXAXAXAXAXAXAXAXAXAXAXAXAXAXAX",
"AXAXAXAXAXAXAXAXAXAXAXAXAX}.|.fXgXgXgXjXsXb.8 q 9 Q l.:X*XxXzXzX5XmX>XR.~.(.eXwXxXnXnX7XnXmXz.E AXAXAXAXAXAXAXAXAXAXAXAXAXAXAXAX",
"AXAXAXAXAXAXAXAXAXAXAXAXAXoXU.fXgXfXgXjXaXa.5 8 0 h d.%XkXbXxXzXZ.^.u.U ( y.D.c.N.eXVXiX3XnXN.r.AXAXAXAXAXAXAXAXAXAXAXAXAXAXAXAX",
"AXAXAXAXAXAXAXAXAXAXAXAXAXXXU.yXgXNXgXpX7Xw.q 8 f g V.;XvXrX!.T.! / A.g.k.T.%.~ ) 9.9XnX2XmXl.r.AXAXAXAXAXAXAXAXAXAXAXAXAXAXAXAX",
"AXAXAXAXAXAXAXAXAXAXAXAXAX X|.oXgXNXgXgXR.r.s e r.r.$XC.^.A.! H.u./ x.H.A.c.&.#.) %./ ~.6XmXN.a.AXAXAXAXAXAXAXAXAXAXAXAXAXAXAXAX",
"AXAXAXAXAXAXAXAXAXAXAXAXAXAX.X.XpXgXgX0XE g s h B.r.2XA.@.~ ! (.G.y.c.H.@.J.K.S.%.9.( y.E.mXx.i.AXAXAXAXAXAXAXAXAXAXAXAXAXAXAXAX",
"AXAXAXAXAXAXAXAXAXAXAXAXAXAX X XyXgXmXN.t.s Q t.t.m.6X#.H.S./ u.J.h.g.k.$.P.S.q.@.@.W.N.u.rX!.Z.AXAXAXAXAXAXAXAXAXAXAXAXAXAXAXAX",
"AXAXAXAXAXAXAXAXAXAXAXAXAXAXW. XtXfX2Xg l.N.l.w.:X*XrX$.Y.9X5.A.H.H.( 5.K.H.$.K.%.$.uXN.( u.P.nXbXbXAXAXAXAXAXAXAXAXAXAXAXAXAXAX",
"AXAXAXAXAXAXAXAXAXAXAXAXAXAXAXQ.qX4XM.V.B.d.r.%XkX5X3X%.@.H.h.Q.E.S.#.u.H.0.#.Y.9./ rXg.z./ Q.4XgXhXNXaXnXAXAXAXAXAXAXAXAXAXAXAX",
"AXAXAXAXAXAXAXAXAXAXAXAXAXAXAXAXAXAXAX@X<X8X$X5X*XxX6XL.u.D.g.H.H.9.u.#.A.9./ $.S.G.T.u.c.^ 9X XXXXXXXyXqXjXiXiXAXAXAXAXAXAXAXAX",
"AXAXAXAXAXAXAXAXAXAXAXAXAXAXAXAXAXAXAX<X<XlX<X<X=XxX8XwXK.G.W y.J./.3X3XrX(.L.#.+.S.S.A.R.E Z.0XU.|.|.}.Y.U.qXsXhXAXAXAXAXAXAXAX",
"AXAXAXAXAXAXAXAXAXAXAXAXAXAXAXAXAXAXAXlX8XlX<X&X=XcXT.u.u.u.W B.7XgXVXZXlXCXmX9XE.S.#.9.F.5.s.7Xx.AXAXAXAXL.pXgXNX7XAXAXAXAXAXAX",
"AXAXAXAXAXAXAXAXAXAXAXAXAXAXAXAXAXAXAX1X5XxX=X=X=X6XR.~ u.~.B.5XiX3X,X3X$X1XvXeXuX9X^.E.@.{ y.>XAXAXAXAXAX4XfXsXNXiXAXAXAXAXAXAX",
"AXAXAXAXAXAXAXAXAXAXAXAXAXAXAXAXAXAXAXlX*XxX:X-X&X=XM.G.9XNX*X-X^.@.O.).nXZ.g.! #.T.:XwX).S.E.6XzXAXAXAXAXuXsXgXNXNXAXAXAXAXAXAX",
"AXAXAXAXAXAXAXAXAXAXAXAXAXAXAXAXAXAXAXlX%XzXkX-X#X#X5XmXMXMX6Xd.! o.*.(.BX4X! D [ %.T.:XbXnXmXiXnXAXAXAXAXaXhXiX0XhX0XAXAXAXAXAX",
"AXAXAXAXAXAXAXAXAXAXAXAXAXAXAXAXAXAXAX&X%XlXlX=X-X&XlXmXMXBXnXt.H | &.9XmX9X@.+.k.J ~ 7XzXnXmXNXiXbXAXAXAXaXiXf.,.{.hXAXAXAXAXAX",
"AXAXAXAXAXAXAXAXAXAXAXAXAXAXAXAXAXAXAX#X&XlXxX1X#X&XkXnXMXVXBXx.S G @.0XmX!.O.$.wXu.[ >XCXCXVXBXVXvXlXlXAX0XW.g g b.qXAXAXAXAXAX",
"AXAXAXAXAXAXAXAXAXAXAXAXAXAXAXAXAXAXAX&X&XkXvXlX&X#X<XbXMXVXMXeXA.K X.iXBX9X*.$.eXK.O.(.aXiXNXnX7X%X#X#X<X!.I.^ 3.b.].AXAXAXAXAX",
"AXAXAXAXAXAXAXAXAXAXAXAXAXAXAXAXAXAXAX<X&X*XxXlX&X$X<X7XVXMXMXmXF.J %.nXCX(.{ S.mX(.O.K.mXaXiXiXvXwXlX&XV.M.E.9.D.W.AXAXAXAXAXAX",
"AXAXAXAXAXAXAXAXAXAXAXAXAXAXAXAXAXAX#X1X=X%X5XcX<X-X*X7XCXMXMXmXu.[ ~ 8XlXN.K #.7X6X) ) !.vXnXVXVXnXlX#Xw.m.d.l.x.AXAXAXAXAXAXAX",
"AXAXAXAXAXAXAXAXAXAXAXAXAXAXAXAXAXAXV.<X-X*X%XcX5X*X*X6XnXVXMXaX$.{ ~ %X&Xd.t S t.%Xx.H c.nXVXMXnXwX5X@X#Xp.w.AXAXAXAXAXAXAXAXAX",
"AXAXAXAXAXAXAXAXAXAXAXAXAXAXAXAXAXAXm.&XC.<XC.:X*XcX-XxXvXBXMXtX&.*.@.6X<X<Xx.I %.,X3X[ 5.nXmXiXiX7X2X&Xm.m.AXAXAXAXAXAXAXAXAXAX",
"AXAXAXAXAXAXAXAXAXAXAXAXAXAXAXAXAXAXm.-XC.5XC.-X:XcXC.zXzXCXBXiX#.[ #.mXBXVXmX/ F S.K.{ S.mXiXaXMXvX5X+XV.@XAXAXAXAXAXAXAXAXAXAX",
"AXAXAXAXAXAXAXAXAXAXAXAXAXAXAXAXAXAXm.#X#XkXC.-X:XxX>X6XcXmXBXmXA.[ ~ zXmXNXnXA.[ { { { F.nX7XiXnX5X=X;X#X@XAXAXAXAXAXAXAXAXAXAX"
};
