/* XPM */
static char *result[] = {
/* columns rows colors chars-per-pixel */
"64 64 235 2 ",
"   c #0E1013",
".  c #1A1B1D",
"X  c #141417",
"o  c #241B1B",
"O  c #1D1F21",
"+  c #3A1F22",
"@  c #1E2023",
"#  c #2A2526",
"$  c #33282A",
"%  c #3A3737",
"&  c #333033",
"*  c #32241F",
"=  c #4D1417",
"-  c #4D1618",
";  c #4B1518",
":  c #571819",
">  c #641A1B",
",  c #6C1B1C",
"<  c #721D1D",
"1  c #7B1E1D",
"2  c #5A221F",
"3  c #68231F",
"4  c #73221F",
"5  c #511E22",
"6  c #582528",
"7  c #57392E",
"8  c #47393A",
"9  c #563A3A",
"0  c #45312B",
"q  c #692A26",
"w  c #742422",
"e  c #7A2726",
"r  c #68382E",
"t  c #74322A",
"y  c #7C352D",
"u  c #7F392F",
"i  c #792F31",
"p  c #673838",
"a  c #773937",
"s  c #6D1F21",
"d  c #56413F",
"f  c #694735",
"g  c #774938",
"h  c #3C3F43",
"j  c #683F43",
"k  c #593F45",
"l  c #484546",
"z  c #5C4C4D",
"x  c #574747",
"c  c #5A5555",
"v  c #634445",
"b  c #6B4446",
"n  c #644C4D",
"m  c #6D4B4A",
"M  c #614748",
"N  c #724B4A",
"B  c #774A47",
"V  c #6A4D51",
"C  c #6C5354",
"Z  c #68595A",
"A  c #735454",
"S  c #7B5454",
"D  c #7C5C5B",
"F  c #77565A",
"G  c #79635C",
"H  c #745E62",
"J  c #6B5F67",
"K  c #6B6268",
"L  c #776468",
"P  c #727072",
"I  c #811E1E",
"U  c #8B1F1D",
"Y  c #89201F",
"T  c #87201F",
"R  c #9A221F",
"E  c #A7241E",
"W  c #852423",
"Q  c #952623",
"!  c #82392F",
"~  c #83352E",
"^  c #853B31",
"/  c #8B3E33",
"(  c #893C3A",
")  c #913E34",
"_  c #983B37",
"`  c #96342E",
"'  c #A52823",
"]  c #BB2922",
"[  c #B62721",
"{  c #A93A36",
"}  c #B73B36",
"|  c #BF312B",
" . c #C42A23",
".. c #CB2B23",
"X. c #C32F28",
"o. c #D52D24",
"O. c #D82D24",
"+. c #C9342C",
"@. c #D1342B",
"#. c #CC3C34",
"$. c #C23932",
"%. c #D03830",
"&. c #8E4134",
"*. c #8A473D",
"=. c #934335",
"-. c #994437",
";. c #974638",
":. c #9A4638",
">. c #954B3A",
",. c #9D4A3A",
"<. c #8C583F",
"1. c #A34D3C",
"2. c #A9463A",
"3. c #BA423C",
"4. c #A5533E",
"5. c #AB523F",
"6. c #B4533F",
"7. c #C5433D",
"8. c #803E41",
"9. c #844C44",
"0. c #854847",
"q. c #994B44",
"w. c #8C534B",
"e. c #85524B",
"r. c #995547",
"t. c #845856",
"y. c #955957",
"u. c #AA4A45",
"i. c #B84A44",
"p. c #AD5441",
"a. c #AA5A42",
"s. c #A45A46",
"d. c #B25642",
"f. c #B45A44",
"g. c #BC5C45",
"h. c #B95C49",
"j. c #A85754",
"k. c #BA5D59",
"l. c #9A685C",
"z. c #92674D",
"x. c #B66146",
"c. c #BD6147",
"v. c #BC6449",
"b. c #BC6949",
"n. c #B5654B",
"m. c #A56556",
"M. c #B86A53",
"N. c #B47756",
"B. c #B06C4E",
"V. c #876767",
"C. c #986967",
"Z. c #9F716E",
"A. c #9A7677",
"S. c #88786E",
"D. c #A56B69",
"F. c #A86865",
"G. c #B76966",
"H. c #AA766B",
"J. c #B6776B",
"K. c #A77774",
"L. c #B47A76",
"P. c #C34C46",
"I. c #C15E47",
"U. c #C15D4A",
"Y. c #C45B55",
"T. c #C36047",
"R. c #C56349",
"E. c #CA654B",
"W. c #C46B4B",
"Q. c #CC6B4D",
"!. c #CC724E",
"~. c #D4724F",
"^. c #CC7552",
"/. c #CC7952",
"(. c #C57958",
"). c #D37451",
"_. c #D57A54",
"`. c #DB7C55",
"'. c #D97C57",
"]. c #CF6D4E",
"[. c #C06662",
"{. c #E17F54",
"}. c #BF835C",
"|. c #BA8778",
" X c #B28576",
".X c #95877F",
"XX c #DD8157",
"oX c #DD8459",
"OX c #DC895B",
"+X c #D68559",
"@X c #D1865C",
"#X c #E3855A",
"$X c #E48A5C",
"%X c #EA8C5D",
"&X c #E28257",
"*X c #EC905F",
"=X c #F3945D",
"-X c #CA8965",
";X c #D98965",
":X c #D8946A",
">X c #C6957B",
",X c #D49975",
"<X c #C78D70",
"1X c #EA8E60",
"2X c #E38A65",
"3X c #E59163",
"4X c #ED9462",
"5X c #E89969",
"6X c #F19662",
"7X c #F59B65",
"8X c #F89E66",
"9X c #F39F6A",
"0X c #F89F68",
"qX c #E49D72",
"wX c #F8A067",
"eX c #F6A26B",
"rX c #F9A269",
"tX c #FCA96E",
"yX c #ECA374",
"uX c #E7A779",
"iX c #F5A974",
"pX c #F5AC7B",
"aX c #F7A771",
"sX c #F3A976",
"dX c #DFA97C",
"fX c #7C8189",
"gX c #91949B",
"hX c #B5918A",
"jX c #D8A783",
"kX c #CEAE8D",
"lX c #EBB483",
"zX c #F3B281",
"xX c #F0AD82",
"cX c #C7998D",
"vX c None",
/* pixels */
"vXvXvXvXvXvXvXvXvXvXvXvXvXvXvXvXvXvXvXvXvXvXvXvXvXvXvXvXvXvXvXvXvXvXvXl l h h l h vXvXvXvXvXvXvXvXvXvXvXvXvXvXvXvXvXvXvXvXvXvXvX",
"vXvXvXvXvXvXvXvXvXvXvXvXvXvXvXvXvXvXvXvXvXvXvXvXvXvXvXvXvXvXvXvXvX% o X . X X . . . vXvXvXvXvXvXvXvXvXvXvXvXvXvXvXvXvXvXvXvXvXvX",
"vXvXvXvXvXvXvXvXvXvXvXvXvXvXvXvXvXvXvXvXvXvXvXvXvXvXvXvXvXvXvXvXh                   . vXvXvXvXvXvXvXvXvXvXvXvXvXvXvXvXvXvXvXvXvX",
"vXvXvXvXvXvXvXvXvXvXvXvXvXvXvXvXvXvXvXvXvXvXvXvXvXvXvXvXvXvXvXP o * d f f g f d 0 . X @ vXvXvXvXvXvXvXvXvXvXvXvXvXvXvXvXvXvXvXvX",
"vXvXvXvXvXvXvXvXvXvXvXvXvXvXvXvXvXvXvXvXvXvXvXvXvXvXvXvXvXvXvXc f OXwXrXtXtXtXwX3X4.o O vXvXvXvXvXvXvXvXvXvXvXvXvXvXvXvXvXvXvXvX",
"vXvXvXvXvXvXvXvXvXvXvXvXvXvXvXvXvXvXvXvXvXvXvXvXvXvXvXvXvXvXvXx z.rXrXtXrXtXwXtX9XQ.7 # vXvXvXvXvXvXvXvXvXvXvXvXvXvXvXvXvXvXvXvX",
"vXvXvXvXvXvXvXvXvXvXvXvXvXvXvXvXvXvXvXvXvXvXvXvXvXvXvXvXvXvXvXl z.qXqXtX=X*X7XtX*XW.d & vXvXvXvXvXvXvXvXvXvXvXvXvXvXvXvXvXvXvXvX",
"vXvXvXvXvXvXvXvXvXvXvXvXvXvXvXvXvXvXvXvXvXvXvXvXvXvXvXvXvXvXvXl z.g f }.OXOX:X}.g 4.9.% vXvXvXvXvXvXvXvXvXvXvXvXvXvXvXvXvXvXvXvX",
"vXvXvXvXvXvXvXvXvXvXvXvXvXvXvXvXvXvXvXvXvXvXvXvXvXvXvXvXvXvXvXl.OX}.f & r c.p 0 g >.f.d vXvXvXvXvXvXvXvXvXvXvXvXvXvXvXvXvXvXvXvX",
"vXvXvXvXvXvXvXvXvXvXvXvXvXvXvXvXvXvXvXvXvXvXvXvXvXvXvXvXvXvX.X|.rX,X|. Xn.+Xr.H.K.H.c.B S.vXvXvXvXvXvXvXvXvXvXvXvXvXvXvXvXvXvXvX",
"vXvXvXvXvXvXvXvXvXvXvXvXvXvXvXvXvXvXvXvXvXvXvXvXvXvXvXvXvXl.<.:XtXwX*X+XxX5XQ.^.$X6X_.=.r.vXvXvXvXvXvXvXvXvXvXvXvXvXvXvXvXvXvXvX",
"vXvXvXvXvXvXvXvXvXvXvXvXvXvXvXvXvXvXvXvXvXvXvXvXvXvXvXvXvXN.4.b.9XwX=X7XpX2XE.%X8X6Xb.&.>.vXvXvXvXvXvXvXvXvXvXvXvXvXvXvXvXvXvXvX",
"vXvXvXvXvXvXvXvXvXvXvXvXvXvXvXvXvXvXvXvXvXvXvXvXvXvXvXvXvX-Xa.(.OXwX8X6Xb.;.u.2XwX&X,.^ r.vXvXvXvXvXvXvXvXvXvXvXvXvXvXvXvXvXvXvX",
"vXvXvXvXvXvXvXvXvXvXvXvXvXvXvXvXvXvXvXvXvXvXvXvXvXvXvXvXvXH.s.-X7X7X8X7X;X(.2XeX8X#Xf.&.m.vXvXvXvXvXvXvXvXvXvXvXvXvXvXvXvXvXvXvX",
"vXvXvXvXvXvXvXvXvXvXvXvXvXvXvXvXvXvXvXvXvXvXvXvXvXvXvXvXvXvX(.:X7X=X6X:X2X;X2X2X8X$Xg.n.vXvXvXvXvXvXvXvXvXvXvXvXvXvXvXvXvXvXvXvX",
"vXvXvXvXvXvXvXvXvXvXvXvXvXvXvXvXvXvXvXvXvXvXvXvXvXvXvXvXvXvXvX<X7X7X%XOX2X'.2X'.*X$Xd.g vXvXvXvXvXvXvXvXvXvXvXvXvXvXvXvXvXvXvXvX",
"vXvXvXvXvXvXvXvXvXvXvXvXvXvXvXvXvXvXvXvXvXvXvXvXvXvXvXvXvXvXvX>X7X7X4Xf.,.,.4.T.6X&Xp.vXvXvXvXvXvXvXvXvXvXvXvXvXvXvXvXvXvXvXvXvX",
"vXvXvXvXvXvXvXvXvXvXvXvXvXvXvXvXvXvXvXvXvXvXvXvXvXvXvXvXvXvXvX,X:X7X6X!.^.!.x.).%XW.=.0.vXvXvXvXvXvXvXvXvXvXvXvXvXvXvXvXvXvXvXvX",
"vXvXvXvXvXvXvXvXvXvXvXvXvXvXvXvXvXvXvXvXvXvXvXvXvXvXvXvXvXvXvXyXW.(.6X7X7X=X*X$XR.=.=.w.vXvXvXvXvXvXvXvXvXvXvXvXvXvXvXvXvXvXvXvX",
"vXvXvXvXvXvXvXvXvXvXvXvXvXvXvXvXvXvXvXvXvXvXvXvXvXvXvXvXvXvXvXuXb.>.n.XX_.!./.x.&.=.d.0.vXvXvXvXvXvXvXvXvXvXvXvXvXvXvXvXvXvXvXvX",
"vXvXvXvXvXvXvXvXvXvXvXvXvXvXvXvXvXvXvXvXvXvXvXvXvXvXvXvXvXvXvXqXb.p.&.&.=.;.=.&.:.,.f.*.vXvXvXvXvXvXvXvXvXvXvXvXvXvXvXvXvXvXvXvX",
"vXvXvXvXvXvXvXvXvXvXvXvXvXvXvXvXvXvXvXvXvXvXvXvXvXvXvXvXvXP gXqXW.XX,./ &.&.&.x.,.p.v.=.B L P vXvXvXvXvXvXvXvXvXvXvXvXvXvXvXvXvX",
"vXvXvXvXvXvXvXvXvXvXvXvXvXvXvXvXvXvXvXvXvXvXvXvXvXvXj.C.Z.m.N.3Xv.9X:Xf.;.>.!.c.=.I.h.e.n V 8.e p k N vXvXvXvXvXvXvXvXvXvXvXvXvX",
"vXvXvXvXvXvXvXvXvXvXvXvXvXvXvXvXvXvXvXvXvXvXvXA.} | j.Z.M.I.'.%Xv.7XtX#Xx._.Q.1.d.m.t.n j W i N m V e.t.K vXvXvXvXvXvXvXvXvXvXvX",
"vXvXvXvXvXvXvXvXvXvXvXvXvXvXvXvXvXvXvXvXvXvXK.k.@.u.D.L.'._.6X`.v.7X4X^./.).d.p.j.H j q 1 j M F t.r.5.r.*.9.vXvXvXvXvXvXvXvXvXvX",
"vXvXvXvXvXvXvXvXvXvXvXvXvXvXvXvXvXkX,X,X;X|.K.i.#.G.L.(.%X%X6X).Q.6X_.).).U.c.m.H b e W j A A w.a./.:XyX&X5.*.e.vXvXvXvXvXvXvXvX",
"vXvXvXvXvXvXvXvXvXvXvXvXvXvXvXjXuXuXsX4X{.K.Z.$.h.D.C.T.^._.oXR.].'.c.M.n.s.t.L F W R j b t.h.3XwX7X7X7X*XQ.5.=.q.vXvXvXvXvXvXvX",
"vXvXvXvXvXvXvXvXvXvXvXvXvXkXlXsXyXiXeX7X,XK.G.#.j.Z.x./.<X(.f.p.f.a.-XqX<XK.N V._  .q.n H h.qXxX*X#X*X8X*XR.I.5.=.r.vXvXvXvXvXvX",
"vXvXvXvXvXvXvXvXvXvXvXvXkXlXtXaXrXwX7X;XcXJ.Y.7.C.K.E.$X1X9XoXb.B.(.;XJ.K.C.S ` [ k.V.F a.;XpX6X%X7XwX8X%X6.T.T.,.;.s.vXvXvXvXvX",
"vXvXvXvXvXvXvXvXvXvXvXvXzXpXtXeXrX4X).J.L.L.%.} y.hXM.].{.6X4X,XhXL.K.C.D.r.E ..P.K.V.q.).yXeX6X7XwXwX*X!.6.T.R.5.=.q.vXvXvXvXvX",
"vXvXvXvXvXvXvXvXvXvXvXlXtXtXwXwX*XQ.g. XD.k.o.X.D.G.hX|.,X,X>XL.L.L.D.A.i.[ ..o.j.F.C.6.#X9XwXwXwXwX7XXXg.I.I.E.f.=.=.vXvXvXvXvX",
"vXvXvXvXvXvXvXvXvXvXkXtXtXrXwX*XQ.I.m.t.K.#.o...i.F.G.L.A.K.F.D.Y.P.q.X.....o.+.y.H.w.f.$X7XwXwXrXeX%XT.I.E.E.U.f.=.=.vXvXvXvXvX",
"vXvXvXvXvXvXvXvXvXvXuXwXwXwX4XQ.I.q.t.D k.o.o.@.o.7.k.G.G.G.r.| O.....o.O.o. .$.t.V.q.g.&X9X8XrXrX0X'.6.I.R.I.g.5.=.=.vXvXvXvXvX",
"vXvXvXvXvXvXvXvXvXkXeX7XwXwX'.R.f.C.t.y.%.o.O.O.o. . ...O...] O.O.O.o.o.o...] } A V.( u.XX*X8XwXrX7XQ.5.R.I.I.2.=.=.=.vXvXvXvXvX",
"vXvXvXvXvXvXvXvXvXjX9X7XwX4XW.I.m.hXw.{ o.o.O.O.o.o.O.O.O...O.O.o.o.o.o. .E ' 8.j V ^ / ].%X=XrXwX7Xf.6.R.I.1.=.=.=.=.vXvXvXvXvX",
"vXvXvXvXvXvXvXvXvXjX7X7X7XoXg.f.hXF.0.] O.O.O.O.@.#.#.{ { u.} $.o.@.o.o.E ' U i b M a ^ 4.`.1XwXeX$X1.f.I.6.-.=.) =.>.vXvXvXvXvX",
"vXvXvXvXvXvXvXvXvXcX=X=X%XW.5.e.Z.F.Q  .%.7.j.m.w.d S % z h z 8 *.B y.q.~ { T i H M 9.I.,.g.%XwX7XW.5.g.5.-.) =.=.=.y.vXvXvXvXvX",
"vXvXvXvXvXvXvXvXvX>X'.XXE.,.^ t.D.k.` y.V.Z Z K z l c 8 j x 8 6 n x Z h z z v k L d M.1X$Xx.'.9X).f.f.1.) ) =.=.=.r.vXvXvXvXvXvX",
"vXvXvXvXvXvXvXvXvX>XQ.U.d.d.f.C.H.j.d h P D V.D d 9 9 x a & 8 ) m S Z m B x x % K >.4XzXaX4X#X*Xg.5.-.) =.) =.) -.t.vXvXvXvXvXvX",
"vXvXvXvXvXvXvXvXvXqX'.R.R.Q.g.r.C.N V H L V.D v 0 x v # O l M _ m m l } { M b 9 e.OXpXpXwXrXeXXX1./ ! / ) =./ =.*.K vXvXvXvXvXvX",
"vXvXvXvXvXvXvXvXdXaX4XQ.;X$Xc.*.0.B A K.S & # v 9 x 0 8 S C v _ N m d $.} 9 8 7 ^.aXpX0XwXeX4Xf.=.:.1.1.=./ ^ / B P vXvXvXvXvXvX",
"vXvXvXvXvXvXvXvXsXtX4X(.yX4XR.q.} 0.% % 9 9 n t.% % x z 0.c n 8.m A c / ~ # + r.6XzXeX0XwXwXW.,.5.g.I.f.=./ / 2.t.gXvXvXvXvXvXvX",
"vXvXvXvXvXvXvXjXaXrX_.OXrX4XR.2...u.Z % x y.n z & % C h Z l Z l F x d $ + # 7 XXaXpX0XrXrX#X4./.T.g.U.d.=./ p.p..XgXvXvXvXvXvXvX",
"vXvXvXvXvXvXvXsXtX9X/.yX0X4XI.X.o.0.b n l Z x w.u.q.i.u.u.u.i.r.u.9 $ # 7 # s.7XeXrX0XrX4Xf.!.4Xc.g.I.5.,.=.g.y.H vXvXvXvXvXvXvX",
"vXvXvXvXvXvXvXiXrX#X@XiX7X$Xg...@.k % Z t.,.P.@.O.O.O.O.O.o.O. .T > 2 q e p +X7X0XrXrX6XQ.v.7XoXf.I.g.1.:.,.p.H 9 vXvXvXvXvXvXvX",
"vXvXvXvXvXvXdXtXwX_.3XeX7XXX6.' +.t.e.3.@.o.o.o.O.o.o.o.o.o.o.Q , , U ] [ -.4X7X0X0X6X).p.OX*XR.g.I.g.:.=.:.w.Z x vXvXvXvXvXvXvX",
"vXvXvXvXvXvXuXeX7X^.*X7X%X~.g.` ' %.o.[  .o.o.o.#.H.F.D.H.P. .]  .o...[ I =.*X7XrX6X_.f.a.%XR.g.g.I.f.-.) e.V.Z vXvXvXvXvXvXvXvX",
"vXvXvXvXvXvXqXwX*XT.#X*X).T.I.2.W  .O.] U ] o.@.L.h # # c Y.O.O.O. .Q I , ) *X7X$X).I.=.W.v.g.g.I.g.5.^ N J j J vXvXvXvXvXvXvXvX",
"vXvXvXvXvXvXuX8X%Xd.!.&XE.I.h.>.t R  ...R Y  .[.c O O O c d...X.' W 1 T < =.*X_.c.p.=.f.W.5.g.g.g.d./ 9 j j F n vXvXvXvXvXvXvXvX",
"vXvXvXvXvXvXqX=X$Xf.g.Q.g.N.;X:X:X-X@XW.d.:.r.S.% $ # 0 z.N.^.(.@Xb.>.2 q v.$Xx.1.5.).$Xg.1.g.g.5./ r z H x w i vXvXvXvXvXvXvXvX",
"vXvXvXvXvX,X9X4X/.4.,.c.(.5X9X7XwXwXwXwX9X6X:X-X}.}.@X3X7X7XwX7X8X8X7X+Xb.$X%XR.R.{.7X).1.1.g.-./ q 8 p q < W vXvXvXvXvXvXvXvXvX",
"vXvXvXvXvX3X7XiX9X+Xa.;.OX7XwX7X7XwX6X7X8X7X8X8XwXwXwXwX8X8X7X8XwX7XwXwXtXwXoXd.W.7X#Xg.,.g.,.! i = = 1 I U W vXvXvXvXvXvXvXvXvX",
"vXvXvXvXvX3X7X7X=X%X).n.%X*X7X*X6X6X6X6X=X=X*X%X%X%XOX*X=X7X7X7X6X%X#X$XXX).p.a.4X1XR.5.5.g.1.^ : = , < 1 1 e vXvXvXvXvXvXvXvXvX",
"vXvXvXvXvX4X7X#XR.x.b.+XOX/.W.W.!.!.!.`.#X$X$X~.b.f.6.4.x.~.XX=X*XXXW.f.a.a.a.$X*XW.1.,.g.f.=.t 6 : = > 1 , e vXvXvXvXvXvXvXvXvX",
"vXvXvXvXJ.3X7X).6.@X*XwXwX6XXX6.4.6.6.T.T.E.].`._.!.b.5.&.-.g.Q._.#X$X3X3X*X4X`.g.=.=.d.g.:.y y ! 3 , < : 1 ~ vXvXvXvXvXvXvXvXvX",
"vXvXvXvXm.#X4XoX+X=XwX7XwXwX6X_.6.1.,.5.6.T.T.T.I.Q._.&X_.a.=.,.d.c.T.!.).Q.v.1.^ =.d.g.1.u ^ ;.t : : > I I i vXvXvXvXvXvXvXvXvX",
"vXvXvXvXvXW.*X6X7XwX8X=X8X=X*X#XQ.d.,.^ ^ ,.6.T.R.R.R.R.].~.Q.1.&.! / =.=.=.=.=.5.I.f.2.u u =.=.! < T Y w 6 vXvXvXvXvXvXvXvXvXvX",
"vXvXvXvXvXf.%X4X*X%X*X*X%X$X$X&X`.E.h.f.,./ ^ &.:.5.g.E.E.I.R.I.I.f.f.f.f.f.g.g.f.1.-./ t u / y w T Y s vXvXvXvXvXvXvXvXvXvXvXvX",
"vXvXvXvXvXh.XX$XOX).W.W.~.Q.Q.R.g.g.h.g.c.5.=.=.) _ -.2.6.I.R.E.E.E.E.E.E.E.g.-./ / &.^ p.f.p.~ 1 T s vXvXvXvXvXvXvXvXvXvXvXvXvX",
"vXvXvXvXvXf.g.R.W.W.6.4.4.5.6.g.g.g.g.g.g.g.1.^ ^ =.) -.) -.1.d.g.R.E.E.E.f.=.1.d.,.! / =./ u 3 < : 5 vXvXvXvXvXvXvXvXvXvXvXvXvX",
"vXvXvXvXw.g.p./ 4.h.g.f.p.1.&.u &.:.,.,.:.&.^ e t y ~ ^ / / / / &.=.1.d.g.f.g.p.:.! =.1.;.;.i = = - 5 vXvXvXvXvXvXvXvXvXvXvXvXvX",
"vXvXvXvXe.h.U.d.,.,.p.p.1.&.! u ^ &.=.;.=.=.&./ / ) / ^ / ! ! u y y q t u / / / ~ ^ =.;.&.y - ; > > vXvXvXvXvXvXvXvXvXvXvXvXvXvX",
"vXvXvXvXvXq.a.f.p.1.4.5.6.f.f.g.g.T.T.g.g.d.:.=.=.=.) ^ e e w 3 w e w , : 2 q t ^ ) / >.&.q - < W s vXvXvXvXvXvXvXvXvXvXvXvXvXvX",
"vXvXvXvXvXvXvXvXvXa u / =.6.g.g.g.g.g.p.,.=.) =.! q : : : : : > I Y Y T , = ; > e q q : ; ; : > > 6 vXvXvXvXvXvXvXvXvXvXvXvXvXvX"
};
