/* XPM */
static char *result[] = {
/* columns rows colors chars-per-pixel */
"64 64 68 1 ",
"  c #040404",
". c #0C0C0C",
"X c #120E0E",
"o c #0F0F10",
"O c #160F10",
"+ c #141414",
"@ c #1A1717",
"# c #161817",
"$ c #181817",
"% c #171818",
"& c #1B1B1B",
"* c #2E1E12",
"= c #211C1C",
"- c #2C211C",
"; c #352219",
": c #1F1F20",
"> c #232323",
", c #2B2B2B",
"< c #3F2626",
"1 c #302828",
"2 c #31302F",
"3 c #2F3132",
"4 c #333434",
"5 c #393335",
"6 c #353638",
"7 c #3C3C3C",
"8 c #78141B",
"9 c #4E3425",
"0 c #4C393B",
"q c #732222",
"w c #7B2E24",
"e c #7E202B",
"r c #643C3C",
"t c #693839",
"y c #534030",
"u c #444444",
"i c #474749",
"p c #4B4B4B",
"a c #4C4E52",
"s c #535454",
"d c #5F5553",
"f c #54575A",
"g c #56595D",
"h c #5B5C5C",
"j c #775D45",
"k c #5C5E62",
"l c #5D6064",
"z c #646464",
"x c #656669",
"c c #66696B",
"v c #6B6B6B",
"b c #76716C",
"n c #6A6D71",
"m c #6C7074",
"M c #737373",
"N c #7C7C7C",
"B c #97291E",
"V c #801F27",
"C c #A78662",
"Z c #838383",
"A c #8B8B8B",
"S c #968E88",
"D c #949494",
"F c #9B9B9B",
"G c #A2A2A2",
"H c #ACACAC",
"J c #B6B6B6",
"K c None",
/* pixels */
"KKKKKKKKKKKKKKKKKKKKKKKKKKKKKKKKKKKKKKKKKKKKKKKKKKKKKKKKKKKKKKKK",
"KKKKKKKKKKKKKKKKKKKKKKKKKKKKKKKKKKKKKKKKKKKKKKKKKKKKKKKKKKKKKKKK",
"KKKKKKKKKKKKKKKKKKKKKKKKKKKKKKKKKKKKKKKKKKKKKKKKKKKKKKKKKKKKKKKK",
"KKKKKKKKKKKKKKKKKKKKKKKKKKKKKKKKKKKKKKKKKKKKKKKKKKKKKKKKKKKKKKKK",
"KKKKKKKKKKKKKKKKKKKKKKKKKKKKKKKKKKKKKKKKKKKKKKKKKKKKKKKKKKKKKKKK",
"KKKKKKKKKKKKKKKKKKKKKKKKKKKKKKKKKKKKKKKKKKKKKKKKKKKKKKKKKKKKKKKK",
"KKKKKKKKKKKKKKKKKKKKKKKKKKKKKKKKKKKKKKKKKKKKKKKKKKKKKKKKKKKKKKKK",
"KKKKKKKKKKKKKKKKKKKKKKKKKKKKKKKKKKKKKKKKKKKKKKKKKKKKKKKKKKKKKKKK",
"KKKKKKKKKKKKKKKKKKKKKKKKKKKKKKKKKKKKKKKKKKKKKKKKKKKKKKKKKKKKKKKK",
"KKKKKKKKKKKKKKKKKKKKKKKKKKKKKKKKKKKKKKKKKKKKKKKKKKKKKKKKKKKKKKKK",
"KKKKKKKKKKKKKKKKKKKKKKKKKKKKKKKKKKKKKKKK7KKKKKKKKKKKKKKKKKKKKKKK",
"KKKKKKKKKKKKKKKKKKKKKKKKKKKKKKKKKKKKKKK6>7KKKKKKKKKKKKKKKKKKKKKK",
"KKKKKKKKKKKKKKKKKKKKKKKKKKKKKKKKKKKKKKKi&>KKKKKKKKKKKKKKKKKKKKKK",
"KKKKKKKKKKKKKKKKKKKKKKKKKKKKKKKKKKKKKKKNu7KKKKKKKKKKKKKKKKKKKKKK",
"KKKKKKKKKKKKKKKKKKKKKKKKKKKKKKKKKKKKKKKKsKKKKKKKKKKKKKKKKKKKKKKK",
"KKKKKKKKKKKKKKKKKKKKKKKKKKKKKKKKKKKKKKKKKKKKKKKKKKKKKKKKKKKKKKKK",
"KKKKKKKKKKKKKKKKKKKKKKKKKKKKKKKKKKKKKKKKKpKKKKKKKKKKKKKKKKKKKKKK",
"KKKKKKKKKKKKKKKKKKKKKKKKKKKKKKKKKKKKKKKKKpxvbSKKKKKKKKKKKKKKKKKK",
"KKKKKKKKKKKKKKKKKKKKKKKKKKKKKKKKKKKKKKK72:77yCKKKKKKKKKKKKKKKKKK",
"KKKKKKKKKKKKKKKKKKKKKKKKKKKKKKKKKKKKKK2>&:6+;jKKKKKKKKKKKKKKKKKK",
"KKKKKKKKKKKKKKKKKKKKKKKKKKKKKKKKKKKKKKu>+,7++7KKKKKKKKKKKKKKKKKK",
"KKKKKKKKKKKKKKKKKKKKKKKKKKKKKKKKKKKKKKK,>o+#o0KKKKKKKKKKKKKKKKKK",
"KKKKKKKKKKKKKKKKKKKKKKKKKKKKKKKKKKKKKKKK&+o&,KKKKKKKKKKKKKKKKKKK",
"KKKKKKKKKKKKKKKKKKKKKKKKKKKKKKKKKKKKKKKK&oo,piKKKKKKKKKKKKKKKKKK",
"KKKKKKKKKKKKKKKKKKKKKKKKKKKKKKKKKKKKKKKKK>&up7KKKKKKKKKKKKKKKKKK",
"KKKKKKKKKKKKKKKKKKKKKKKKKKKKKKKKKKKKKKKKK:szs7fKKKKKKKKKKKKKKKKK",
"KKKKKKKKKKKKKKKKKKKKKKKKKKKKKKKKKKKKKKKKK.6fsi4KKKKKKKKKKKKKKKKK",
"KKKKKKKKKKKKKKKKKKKKKKKKKKKKKKKKKKKKKKKKK..7ap22KKKKKKKKKKKKKKKK",
"KKKKKKKKKKKKKKKKKKzuaskzcxxccxlKKKKKKKKKK+ ,ii4,KKKKKKKKKKKKKKKK",
"KKK,>KKKKKKKKKKKK4hifgkknmnnlkkkKKKKKKKKK+.&uu7,KyKKKKKKKKKKKKKK",
"KK04,KK&&+++++&&+&77faaaaffffaaaKKKKKKKKK..o607,zzKKKKKKKKKKKKKK",
"KVq-&>&&+. ........+6uui63446636KKKKKKKK:. .3763piaKZh7KKKKKKKKK",
"K8B9&O.....+++o.+>#&+oo+@O....:KKKKKKKKK+ ..,6,4pfZzxu7KKKKKKKKK",
"KVw;+...o+++#$+.,,+&++o7drt9+o%KKKKKKKK:.. .,,:#7442>>6upzKKKKKK",
"KKK&.o+++$$&$$+.>++&+++&25,=::>KKKKKKK>+.. .,>% :2&oo%%%>47KKKKK",
"KK6&%%$$$+. ...o+.&&&&&+@&&:,76KKKKKK>+o.. .-#o o>#.oooo+$>1KKKK",
"KK4+&$$+. .&#+.$.o&&,>>,6u7467uKKKK7,&+... +:+   &>o..o..+KKKKKK",
"K&.o$&+.$7sshs6+..+&u6,45ihi7iy364,,>#o..  #$... o>:,ui6>+%KKKKK",
"K. +$$.,hhKKKK6:4+X%42:=:>6pu4>>&&&&#+o..  &+  o .,gmZNZMs>&4KKK",
",..%$.,hkZKKKK>:ku.o=:&%%$%,4&%++$+++++.o.o$o  o.4CAKKKKKNv3&KKK",
"K++&+&hKKKDKKs%KKs2 +&$+o..+%++++++++o..o ++. .#7hNHKKKKKKNM,&KK",
"K4>&.uzKKKKAKu-K77s+.+o.   .o++%+$,++X.. .%o  .4zKvGKKKKKFKMh&>K",
"K,>+&hKKKKADAviN6,i2 .  .+o#:uau>>&$++.  .#.  +0KKKAGNnxKFKKM6&K",
"K>&.7xKKKNNDAsxv,>6ki72,im:o3MFFMi&+.    ++  .3sKKKvFMMlzKKKbs&K",
"7KKoabKZAANAlaf4433MAZAADDv#xFDFDAN&.   .+.  +uMKK>>AACmsvKKKz&,",
"KK>+fbKJvbNADACvzaiaszMAADC6bANANNZu    ++K .+sKK4++hGlgzxKKKv>&",
"KK,+pNDDMzcfaahvNADGDmaskMZfxZmsMZAs+   o+K .+kKK7+.6GZxZkKKKv,+",
"KKK+7vKKuaflnmvvkfakmDZCd6pzvMc,vNNvu.+..KK.+ozAKM77aZZvbzKKKv>&",
"KKK+,hKKKKsu6,4uszvMMNMNZ4>shks3shzZZ+..+KKoK+hDAKKhshAZgmHKZx&>",
"KKK$+hKKKKAMKiyiK,i,:yzu4>>7K2=-74si>. .+K&KKo0DKKKKsaNCNKKKNf+K",
"KKK&.7vKKKKAKKKKKKz+ :3%.>ufh6,6uiz&&&+KKKKKK#>ZKKKKKkmDKKKKM6+K",
"KKKK+&svKKKGKKKKKM6.#KKK++iAZvvMNAKKKKKKKKKKKK&pFKKKKDKKKKKZz%&K",
"KKKKK+&hxKKHKKKvbuooKKKKKKKKKKKKKKKKKKKKKKKKKK&&vFKKKFKKKKAM>+KK",
"KKKKK&.&ilbNxcvl4+.KKKKKKKKKKKKKKKKKKKKKKKKKKKK+>vFKKFKKKAM4+KKK",
"KKKKKK&..>7pai6$..KKKKKKKKKKKKKKKKKKKKKKKKKKKKKK+&pNDDFAZh>+>KKK",
"KKKKKKKKo.Xo+X..oKKKKKKKKKKKKKKKKKKKKKKKKKKKKKKKK+&>6ii0>&+KKKKK",
"KKKKKKKKKK+...oKKKKKKKKKKKKKKKKKKKKKKKKKKKKKKKKKKKK++++++KKKKKKK",
"KKKKKKKKKKKKKKKKKKKKKKKKKKKKKKKKKKKKKKKKKKKKKKKKKKKKKKKKKKKKKKKK",
"KKKKKKKKKKKKKKKKKKKKKKKKKKKKKKKKKKKKKKKKKKKKKKKKKKKKKKKKKKKKKKKK",
"KKKKKKKKKKKKKKKKKKKKKKKKKKKKKKKKKKKKKKKKKKKKKKKKKKKKKKKKKKKKKKKK",
"KKKKKKKKKKKKKKKKKKKKKKKKKKKKKKKKKKKKKKKKKKKKKKKKKKKKKKKKKKKKKKKK",
"KKKKKKKKKKKKKKKKKKKKKKKKKKKKKKKKKKKKKKKKKKKKKKKKKKKKKKKKKKKKKKKK",
"KKKKKKKKKKKKKKKKKKKKKKKKKKKKKKKKKKKKKKKKKKKKKKKKKKKKKKKKKKKKKKKK",
"KKKKKKKKKKKKKKKKKKKKKKKKKKKKKKKKKKKKKKKKKKKKKKKKKKKKKKKKKKKKKKKK"
};
