/* XPM */
static char *result[] = {
/* columns rows colors chars-per-pixel */
"64 64 247 2 ",
"   c #010000",
".  c #0D0203",
"X  c #150203",
"o  c #1A0405",
"O  c #17080A",
"+  c #1A1717",
"@  c #1A150F",
"#  c #220303",
"$  c #2C0505",
"%  c #2A0709",
"&  c #340203",
"*  c #3C0302",
"=  c #36080A",
"-  c #291714",
";  c #391A1B",
":  c #2A110D",
">  c #2A231C",
",  c #3B271A",
"<  c #262424",
"1  c #372B28",
"2  c #303437",
"3  c #1E2827",
"4  c #430505",
"5  c #4C0505",
"6  c #480809",
"7  c #530504",
"8  c #590806",
"9  c #54170E",
"0  c #461714",
"q  c #561913",
"w  c #4A1308",
"e  c #6D0303",
"r  c #680806",
"t  c #770805",
"y  c #68180D",
"u  c #7A150B",
"i  c #6E1B16",
"p  c #492A1D",
"a  c #5C2216",
"s  c #672419",
"d  c #7A2819",
"f  c #492726",
"g  c #463627",
"h  c #463F38",
"j  c #523A2F",
"k  c #723629",
"l  c #601F23",
"z  c #574938",
"x  c #4B4433",
"c  c #764B38",
"v  c #68583A",
"b  c #73593A",
"n  c #694A2E",
"m  c #7E613E",
"M  c #3E3F43",
"N  c #384245",
"B  c #334A4F",
"V  c #4A4748",
"C  c #585556",
"Z  c #52504F",
"A  c #675C4A",
"S  c #72554C",
"D  c #7B6748",
"F  c #756758",
"G  c #756C5A",
"H  c #506C6F",
"J  c #666668",
"K  c #736866",
"L  c #6F7474",
"P  c #595E61",
"I  c #850302",
"U  c #890806",
"Y  c #990707",
"T  c #861709",
"R  c #921B0B",
"E  c #9B1B0C",
"W  c #981304",
"Q  c #931B12",
"!  c #AA0706",
"~  c #B60606",
"^  c #A41C0B",
"/  c #AB1C0B",
"(  c #AA1904",
")  c #B41D0B",
"_  c #BC1D0B",
"`  c #BB1705",
"'  c #AF1716",
"]  c #952617",
"[  c #973F17",
"{  c #AB210B",
"}  c #BC210A",
"|  c #B7210F",
" . c #B6371C",
".. c #AC3217",
"X. c #9A362B",
"o. c #8D2E2B",
"O. c #AE2D29",
"+. c #A01E20",
"@. c #C70706",
"#. c #D20303",
"$. c #DD0303",
"%. c #D40909",
"&. c #CC1D05",
"*. c #C31A06",
"=. c #D41B06",
"-. c #D40B13",
";. c #E30102",
":. c #EA0304",
">. c #E80A08",
",. c #F40504",
"<. c #FD0C02",
"1. c #F80704",
"2. c #EA1608",
"3. c #FD1005",
"4. c #FE1309",
"5. c #F8150A",
"6. c #C3220C",
"7. c #CC210A",
"8. c #C82106",
"9. c #D42205",
"0. c #DB2405",
"q. c #D4230A",
"w. c #DC250B",
"e. c #D7371F",
"r. c #E42504",
"t. c #EA2503",
"y. c #E2260A",
"u. c #E92908",
"i. c #F52A07",
"p. c #FA3A1D",
"a. c #F92D17",
"s. c #C93D22",
"d. c #9A4639",
"f. c #B54F2C",
"g. c #A55A2B",
"h. c #C74726",
"j. c #FC4926",
"k. c #FD562D",
"l. c #FD5A2E",
"z. c #F7542B",
"x. c #FE5B32",
"c. c #FA5831",
"v. c #ED512E",
"b. c #CD743A",
"n. c #FE6235",
"m. c #854C49",
"M. c #984747",
"N. c #895A55",
"B. c #915753",
"V. c #A45957",
"C. c #B75249",
"Z. c #8B6A45",
"A. c #94754B",
"S. c #847659",
"D. c #967B54",
"F. c #946C47",
"G. c #AB7256",
"H. c #896A68",
"J. c #857C60",
"K. c #987977",
"L. c #B87674",
"P. c #A76766",
"I. c #D47265",
"U. c #778174",
"Y. c #A78657",
"T. c #B5905A",
"R. c #92896D",
"E. c #BC9762",
"W. c #AC9B75",
"Q. c #BAA579",
"!. c #AEA07D",
"~. c #CD8F51",
"^. c #C89D66",
"/. c #C6A66A",
"(. c #D7A969",
"). c #D9B773",
"_. c #D3AF75",
"`. c #E4AD6B",
"'. c #E8B56B",
"]. c #F8BC6D",
"[. c #E7BA76",
"{. c #FDBE72",
"}. c #F5BD74",
"|. c #E19653",
" X c #FBC06F",
".X c #ECC47B",
"XX c #FDC374",
"oX c #FFCA76",
"OX c #FCC67A",
"+X c #FDCB7C",
"@X c #F4C67B",
"#X c #FED27D",
"$X c #3E7683",
"%X c #607C80",
"&X c #5E888B",
"*X c #7D8888",
"=X c #738A89",
"-X c #699BA9",
";X c #73AAB1",
":X c #7BB7C9",
">X c #7AB6D0",
",X c #948F8F",
"<X c #B4908E",
"1X c #B4AE8C",
"2X c #97AAAA",
"3X c #B2ACAA",
"4X c #C79590",
"5X c #CDB494",
"6X c #C2BDB6",
"7X c #ECB5B1",
"8X c #E5BE83",
"9X c #D9CA9A",
"0X c #CFC295",
"qX c #FDCD81",
"wX c #F6CA87",
"eX c #FED383",
"rX c #FED985",
"tX c #FEDA8A",
"yX c #FBD58B",
"uX c #FEDC94",
"iX c #FDD994",
"pX c #EAD398",
"aX c #FFE392",
"sX c #FEE59B",
"dX c #FFE28E",
"fX c #D9D4AC",
"gX c #EDD0AF",
"hX c #FFEAA4",
"jX c #FBE8A8",
"kX c #FBEAB4",
"lX c #FEF4B5",
"zX c #F6EBAD",
"xX c #81BDCD",
"cX c #BEBCC2",
"vX c #C4BFC2",
"bX c #89C8D8",
"nX c #95C7C6",
"mX c #91D5E1",
"MX c #BAFEFC",
"NX c #B2F8F4",
"BX c #A9EEED",
"VX c #D0CFCE",
"CX c #F8D0CB",
"ZX c #E9E8DA",
"AX c #F1F2F4",
"SX c #D0EFF1",
"DX c None",
/* pixels */
"DXDXDXDXDXDXDXDXDXDXDXDXDXDXDXDXDXDXDXDXDXDXDXDXDXDXDXDXDXDXDXDXDXDXDXDXDXDXDXDXDXDXDXDXDXDXDXDXDXDXDXDXDXDXDXDXDXDXDXDXDXDXDXDX",
"DXDXDXDXDXDXDXDXDXDXDXDXDXDXDXDXDXDXDXDXDXDXDXDXDXDXDXDXDXDXDXDXDX2X,X2XV 2 VXZ V DXDXDXDXDXDXDXDXDXDXDXDXDXDXDXDXDXDXDXDXDXDXDX",
"DXDXDXDXDXDXDXDXDXDXDXDXDXDXDXDXDXDXDXDXDXDXDXDXDXDXDXDXDXDX3XK P.] r U U ( 7.t r X.; P DXDXDXDXDXDXDXDXDXDXDXDXDXDXDXDXDXDXDXDX",
"DXDXDXDXDXDXDXDXDXDXDXDXDXDXDXDXDXDXDXDXDXDXDXDXDXDXDXDX=XH.a ( t.i.i.i.i.u.t.i.i.=.r.r N.VXDXDXDXDXDXDXDXDXDXDXDXDXDXDXDXDXDXDX",
"DXDXDXDXDXDXDXDXDXDXDXDXDXDXDXDXDXDXDXDXDXDXDXDXDXDXDXC 8 *.y.| R u 0.E 0.t.r.r.t.r.t.i.=.u K DXDXDXDXDXDXDXDXDXDXDXDXDXDXDXDXDX",
"DXDXDXDXDXDXDXDXDXDXDXDXDXDXDXDXDXDXDXDXDXDXDXDXDXDX; Y i.t.y.6./ } u.) } t.t.8.8.t.7.q.t.i.( - DXDXDXDXDXDXDXDXDXDXDXDXDXDXDXDX",
"DXDXDXDXDXDXDXDXDXDXDXDXDXDXDXDXDXDXDXDXDXDXDXDXDXK *.i.i.q.R R E E u ^ / 0.r.0.y.t.8.8.t.t.i.W 1 DXDXDXDXDXDXDXDXDXDXDXDXDXDXDX",
"DXDXDXDXDXDXDXDXDXDXDXDXDXDXDXDXDXDXDXDXDXDXDXDXDXI i.r.` ^ ^ { / / / / t.t.t.r.r.&.t.r.r.7.y.i.8 DXDXDXDXDXDXDXDXDXDXDXDXDXDXDX",
"DXDXDXDXDXDXDXDXDXDXDXDXDXDXDXDXDXDXDXDXDXDXDXDXw u.6.y.| T T R T T R 8.r.0._ r.r.} 0.r.r.^ w.w.2.B.DXDXDXDXDXDXDXDXDXDXDXDXDXDX",
"DXDXDXDXDXDXDXDXDXDXDXDXDXDXDXDXDXDXDXDXDXDXDXDXr i.9.) 6./ ) ( { E R y T r./ r.r.u.r.t.r.t.q.) i.I N DXDXDXDXDXDXDXDXDXDXDXDXDX",
"DXDXDXDXDXDXDXDXDXDXDXDXDXDXDXDXDXDXDXDXDXDXDXK.` t.t.q.) ) T u ^ T u | q.0.) t.*./ E _ r.t.0.0.t.0.f DXDXDXDXDXDXDXDXDXDXDXDXDX",
"DXDXDXDXDXDXDXDXDXDXDXDXDXDXDXDXDXDXDXDXDXDXDX1 &.y.6.7.9.E y 6.T T R q.t.r.w.t.9.9.w.0.} ` 7.7.r.r.X.DXDXDXDXDXDXDXDXDXDXDXDXDX",
"DXDXDXDXDXDXDXDXDXDXDXDXDXDXDXDXDXDXDXDXDXDXDXs t.r.^ T E E E E E u E i.=.q.7.0.7.u.w.0.6.*.9.q.q.r.] DXDXDXDXDXDXDXDXDXDXDXDXDX",
"DXDXDXDXDXDXDXDXDXDXDXDXDXDXDXDXDXDXDXDXDXDXDX] i.y.^ i T ] E R Q y 9 R &.8.) 8.^ } _ q.} 6.9.t.0.i.W P DXDXDXDXDXDXDXDXDXDXDXDX",
"DXDXDXDXDXDXDXDXDXDXDXDXDXDXDXDXDXDXDXDXDXDXDX| 7.) q.6.w.{ ) 6.{ { R u u.u.w.u.y.t.) q.u.*.w.r.r.t.&.<XDXDXDXDXDXDXDXDXDXDXDXDX",
"DXDXDXDXDXDXDXDXDXDXDXDXDXDXDXDXDXDXDXDXDXDXDXu 9 k q * U W *.=.t.{ q.) t 8 T * $ 9 o # ) u.| r.0.y.*.h DXDXDXDXDXDXDXDXDXDXDXDX",
"DXDXDXDXDXDXDXDXDXDXDXDXDXDXDXDXDXDXDXDXDXDXDXi s zXwX~.Z.d.k p d p k p m Z.Y.D./.(.).c T w.) t.` 6.=.h DXDXDXDXDXDXDXDXDXDXDXDX",
"DXDXDXDXDXDXDXDXDXDXDXDXDXDXDXDXDXDXDXDXDXDXDXO.h.fXsXoX#XoX@XXX'..X XXX#X#X#X#X#XoXdXA.4 y.=.0.y.t.&.DXDXDXDXDXDXDXDXDXDXDXDXDX",
"DXDXDXDXDXDXDXDXDXDXDXDXDXDXDXDXDXDXDXDXDXDXDXI.t 5XyX]. X XXXXX{.{.XXXX X XOXXXOX@XrXv 4 u.q.) t.0.=.DXDXDXDXDXDXDXDXDXDXDXDXDX",
"DXDXDXDXDXDXDXDXDXDXDXDXDXDXDXDXDXDXDXDXDXDXDXK - kXyX].oX XXXXXXX{.{.XXXX@XOXoX@XoXrXG.t 7.u.=.=.u.U DXDXDXDXDXDXDXDXDXDXDXDXDX",
"DXDXDXDXDXDXDXDXDXDXDXDXDXDXDXDXDXDXDXDXDXDXDX3X+ 1X).oX].XXoX{.XXXXXXXXoXXX XOX#XOX8Xn *.q.} w.r.9.] DXDXDXDXDXDXDXDXDXDXDXDXDX",
"DXDXDXDXDXDXDXDXDXDXDXDXDXDXDXDXDXDXDXDXDXDXDXAXh 5XD.^.eXoX`.}.XXXX{.{.XX+XeX[.Y.A.).n # { q.7.w.=.C.DXDXDXDXDXDXDXDXDXDXDXDXDX",
"DXDXDXDXDXDXDXDXDXDXDXDXDXDXDXDXDXDXDXDXDXDXDX,X@ 1XQ.v n `.(._.oXXX#XOX}.E.Z.D Y.}.+XtXx r y.w.r.` m.DXDXDXDXDXDXDXDXDXDXDXDXDX",
"DXDXDXDXDXDXDXDXDXDXDXDXDXDXDXDXDXDXDXDXDXDXVXx z 1XZX6XK > n [.(.Y.Y.n p j Z.T.E.Q.wXrXY.u i.W a q 2 DXDXDXDXDXDXDXDXDXDXDXDXDX",
"DXDXDXDXDXDXDXDXDXDXDXDXDXDXDXDXDXDXDXDXDXDX,XD z R.zXfXAXVXR.'.(.b A.1X3X6X,X,XSXZX+XqX[.d u G zXzXA DXDXDXDXDXDXDXDXDXDXDXDXDX",
"DXDXDXDXDXDXDXDXDXDXDXDXDXDXDXDXDXDXDXDXDXDX,XR.Y.R.lX(.^.8XiX}.].].oXkXAXZXZXVX5X8XoXqXqX: F zXY./.Q.K DXDXDXDXDXDXDXDXDXDXDXDX",
"DXDXDXDXDXDXDXDXDXDXDXDXDXDXDXDXDXDXDXDXDXDXDXz Y.G lXOXXX{.].{.XX#X X X(./.(.(.}.oX+XqXqXf Q.T.W.b /.DXDXDXDXDXDXDXDXDXDXDXDXDX",
"DXDXDXDXDXDXDXDXDXDXDXDXDXDXDXDXDXDXDXDXDXDXZXP - F kX}.{.XXXX~.f.b. X XoXoXoX+XOXXXqXOXqX_.)..XaXdX/.DXDXDXDXDXDXDXDXDXDXDXDXDX",
"DXDXDXDXDXDXDXDXDXDXDXDXDXDXDXDXDXDX2XG F S.R.W., x kXXX{.XX}.~.b.f.|.OXXXXXoXOX+XOXqXqX@X#XeX].'.sXZ.DXDXDXDXDXDXDXDXDXDXDXDXDX",
"DXDXDXDXDXDXDXDXDXDXDXDXDXDXDXDXVXJ R.pXaXsXaXdXwXx zX+X{.XXXXiXaXoXXX{.XXXXoXoX+XOX+X+XqXdX|.[ b.).h DXDXDXDXDXDXDXDXDXDXDXDXDX",
"DXDXDXDXDXDXDXDXDXDXDXDXDXDXDXVXA 9XhX#X+X^.Y.^.[.z 9X#X{.XXoX_.).oX{.XX{.{.OXoX+XoX+X+X[.D.f. .[ , DXDXDXDXDXDXDXDXDXDXDXDXDXDX",
"DXDXDXDXDXDXDXDXDXDXDXDXDXDXDXG kXsX@X+XuXW.G G D @ 5XyX].XXoX'.`.oXXXXXXXOXOXoXqXoXOXtXv v , j Z DXDXDXDXDXDXDXDXDXDXDXDXDXDXDX",
"DXDXDXDXDXDXDXDXDXDXDXDXDXDXcX!.sX@X+X+XyXuXsXuXhXS.S.kX].XXXXXXoXXXXXXXOXXXoXXX+X+XrXv x ).v P VXDXDXDXDXDXDXDXDXDXDXDXDXDXDXDX",
"DXDXDXDXDXDXDXDXDXDXDXDXDXDX2Xz aX#X+XoXOX+XOXoX+X.Xx pXqX].XX XXXXXXXXX{.XXXXoX#X#Xb ; c S N.N.; L DXDXDXDXDXDXDXDXDXDXDXDXDXDX",
"DXDXDXDXDXDXDXDXDXDXDXDXDX,X; T c ).eXrXrX_.@XeX+XrXT.h 9XrXXX{. XXX X XXXOX+X'.T.1 + m.k V.m.C.M.< DXDXDXDXDXDXDXDXDXDXDXDXDXDX",
"DXDXDXDXDXDXDXDXDXDXDXDX,Xq c.x.s.k Z.Y.D b @XqX@XOXrXp 0 S._.T.'.#X+X#XXX^.D S.W.0XgXfX1Xc M.Y :.t J DXDXDXDXDXDXDXDXDXDXDXDXDX",
"DXDXDXDXDXDXDXDXDXDXDXDX. s s q s d d t 4 D.eXqXtX#XrXk >.& 6 s j n c g 1 S.5XlXlXjXsXuXlX5XS V.@.>.& DXDXDXDXDXDXDXDXDXDXDXDXDX",
"DXDXDXDXDXDXDXDXDXDXDX- s f.h.h.f.X.d y 6 O 1 A.Y.Y.z s 4.U t 4.$.$.e 1 0XlXsXwXqXOXoXqXXXyXZ.P.O.! & C DXDXDXDXDXDXDXDXDXDXDXDX",
"DXDXDXDXDXDXDXDXDXDXP ..n.x.x.l.x.x.x.j.~ u & O = 9 ! ~ 1.2.6 =.<.U S.kXhXwX+X+XeX+XqXqXOXeXE.S P.4 = 6 DXDXDXDXDXDXDXDXDXDXDXDX",
"DXDXDXDXDXDXDXDXDXDX0 x.k.c.k.k.c.c.c.j.<.<.5.! = 8 2.3.2.@.r & i 1XlXiX+X+XqXqX+X+XOX+X+X#X}.S P.! r 5 L DXDXDXDXDXDXDXDXDXDXDX",
"DXDXDXDXDXDXDXDXDXJ ..n.z.l.l.c.l.x.c.j.3.<.<.<.2.U = e 4 * # x fXlX@XoXqXqX+XqXOX+XyX+XqX+X+XA L.' U r f DXDXDXDXDXDXDXDXDXDXDX",
"DXDXDXDXDXDXDXDXDXf z.l.l.l.l.k.c.l.x.j.1.3.<.<.<.*.6 < v , S.kXsXOX+X+XqX+XOXqXtXeXY.).#X+XeXA 4X' Y r 8 DXDXDXDXDXDXDXDXDXDXDX",
"DXDXDXDXDXDXDXDXDXy n.z.l.l.k.l.l.k.x.p.1.<.<.5.Y 4 $ % pXiXkXyX+X+XqX+X+XqXtX@XD.g D.qX+XaXE.S 4X~ ~ 5 e DXDXDXDXDXDXDXDXDXDXDX",
"DXDXDXDXDXDXDXDXDX] n.z.l.k.l.k.l.k.x.i.<.<.<.! 4 $ g Y.@XqXOX+XqX@X+XtXyX).A.f B.Z D [..XY.x 7XV.#.%.t I DXDXDXDXDXDXDXDXDXDXDX",
"DXDXDXDXDXDXDXDXDX..n.l.c.k.l.l.z.l.p.1.<.<.>.8 6 = > E.tXOX+X+XeXrX[.Y.z O 4 @.V.5XH.N.F S 4X<X' :.;.,.~ DXDXDXDXDXDXDXDXDXDXDX",
"DXDXDXDXDXDXDXDXV s.j.l.k.x.k.l.l.j.3.4.3.2.~ 4 7 4 O D..XqX+XqX/.v - # * % 8 ,.#.+.V.L.L.L.V.' ;.;.;.>.7 DXDXDXDXDXDXDXDXDXDXDX",
"DXDXDXDXDXDXDXDXV s.a.a.l.l.x.x.p.*.U u 8 8 = X # o : o Y.wXwXD     * 7 7 = 7 :.;.;.@.~ ~ ~ #.;.;.$.;.%.- DXDXDXDXDXDXDXDXDXDXDX",
"DXDXDXDXDXDXDXDXDXd a.<.a.p.e.Q 5 5 r ! &.%.U $ & # X : A - Z.@   O 5 6 7 & r 1.:.:.:.1.>.:.,.:.;.;.;.:.~ 1 DXDXDXDXDXDXDXDXDXDX",
"DXDXDXDXDXDXDXDXDX# q 8 r 7 4 e @.3.3.<.3.3.Y * 7 5 * . X 4 . X 4 X = 7 6 # 6 Y r U -.! 4 Y %.$.$.:.:.,.~ DXDXDXDXDXDXDXDXDXDXDX",
"DXDXDXDXDXDXDXDXDXy v.! ' @.2.3.<.<.1.<.<.3.! * 4 6 5 6 o o o 4 7 % X % o # 6 t U 8   % U U 8 l o.X.O.Q : DXDXDXDXDXDXDXDXDXDXDX",
"DXDXDXDXDXDXDXDXDXp v.4.<.<.<.<.<.<.<.<.<.<.@.4 5 5 6 4 X . 4 6 6 X % r ! -.:.%.~ >.U @.,.>.$.~ +.m.,X2XP DXDXDXDXDXDXDXDXDXDXDX",
"DXDXDXDXDXDXDXDXDXV  .p.1.<.<.<.<.<.<.<.<.1.5.r 4 6 % . $ o 6 & X V Y :.;.;.:.Y t ! 1.;.;.;.:.;.:.$.@.+.1 DXDXDXDXDXDXDXDXDXDXDX",
"DXDXDXDXDXDXDXDXDXDXw l.<.<.<.<.<.<.<.<.<.3.5.` = o o * 6 o # - 3X7XL.d.M.M.#.~ Y I ~ :.;.;.;.;.;.;.:.;.0 DXDXDXDXDXDXDXDXDXDXDX",
"DXDXDXDXDXDXDXDXDXDXN  .p.,.<.<.<.<.<.<.@.e t e X $ 6 5 5 o = O K.VXVX7X7X3X~ :.' -.~ :.;.;.;.;.:.$.;.#.0 DXDXDXDXDXDXDXDXDXDXDX",
"DXDXDXDXDXDXDXDXDXDXDX= v.4.<.<.<.<.<.1.0 $X&XH + o & 5 4 o & .   h V K.CXV.#.>.;.:.;.$.;.;.;.;.;.:.:.@.1 DXDXDXDXDXDXDXDXDXDXDX",
"DXDXDXDXDXDXDXDXDXDXDXDX6 j.<.<.3.3.>.W @ -XbXMX;XH < $ %   > U.k ~ r L 7X<X! :.$.;.;.;.;.;.;.;.$.$.,.I DXDXDXDXDXDXDXDXDXDXDXDX",
"DXDXDXDXDXDXDXDXDXDXDXDXDXs p.2.@.t 6 r ! 1 ;XbXBX>X;XB   R.pXsX^.~ Y L CX7X,X~ :.;.$.:.,.,.1.,.,.1.#.= DXDXDXDXDXDXDXDXDXDXDXDX",
"DXDXDXDXDXDXDXDXDXDXDXDXDX< : 6 q U -.3.4.I H :XmXNXmX>XB D dX XyXF.! * =XCX7XK.! %.-.@.Y I I I Y I % DXDXDXDXDXDXDXDXDXDXDXDXDX",
"DXDXDXDXDXDXDXDXDXDXDXDXZ nX;X+ t 5.4.3.3.5.5 -X>XNXMXMXNX2 ^.#XqXuXf.%.& ,XCXCX<X! e 1 DXDXDXDXDXDXDXDXDXDXDXDXDXDXDXDXDXDXDXDX",
"DXDXDXDXDXDXDXDXDXDXDXJ -XmXbX:XH - e ! ;.4.%.1 bX>XMXNXMX;Xx dX}.T.x * 5   P 4XC < DXDXDXDXDXDXDXDXDXDXDXDXDXDXDXDXDXDXDXDXDXDX",
"DXDXDXDXDXDXDXDXDXDXDXL %X&X%XL =XZ N V f 0 =   B bXbXMXMXMX< x h C DXDXDXDXV 2 DXDXDXDXDXDXDXDXDXDXDXDXDXDXDXDXDXDXDXDXDXDXDXDX",
"DXDXDXDXDXDXDXDXDXDXDXDXDXDXDXDXDXDXDXDXDXDXDXDXC H :XBX;XN DXDXDXDXDXDXDXDXDXDXDXDXDXDXDXDXDXDXDXDXDXDXDXDXDXDXDXDXDXDXDXDXDXDX",
"DXDXDXDXDXDXDXDXDXDXDXDXDXDXDXDXDXDXDXDXDXDXDXDXDXDXN 3 Z DXDXDXDXDXDXDXDXDXDXDXDXDXDXDXDXDXDXDXDXDXDXDXDXDXDXDXDXDXDXDXDXDXDXDX",
"DXDXDXDXDXDXDXDXDXDXDXDXDXDXDXDXDXDXDXDXDXDXDXDXDXDXDXDXDXDXDXDXDXDXDXDXDXDXDXDXDXDXDXDXDXDXDXDXDXDXDXDXDXDXDXDXDXDXDXDXDXDXDXDX"
};
