/* XPM */
static char *result[] = {
/* columns rows colors chars-per-pixel */
"64 64 32 1 ",
"  c #977248",
". c #9B754B",
"X c #9E7A4F",
"o c #9F7A50",
"O c #A27D53",
"+ c #A57F58",
"@ c #A58156",
"# c #A98257",
"$ c #A68359",
"% c #AA855C",
"& c #AD895E",
"* c #B0855B",
"= c #B08B5F",
"- c #AD8760",
"; c #AE8B61",
": c #B28D63",
"> c #B88E64",
", c #B58F68",
"< c #B59166",
"1 c #B99267",
"2 c #B69369",
"3 c #BA956B",
"4 c #BC996E",
"5 c #BD9770",
"6 c #BE9B71",
"7 c #C09B6F",
"8 c #C29D73",
"9 c #C59F78",
"0 c #C5A176",
"q c #C6A279",
"w c #C9A47A",
"e c #CCA97F",
/* pixels */
"23432>:<<>2872142<;;;;23<;;::+++-:,,,,3,5,,,5,--::36646822222242",
"24732><<%%:33>;>;;;;<;<2;;;2,:-*-:,,555555,55,,,-,39qq8q66664662",
":>11>:::::<88422%;;:<;<<<<:31>>>::,3,5555,,,,,>,;:36q66646224662",
"24443324;;:24>::%;;:<<<2222444>>>,35553,,,33,3,,;;26644422222222",
"58873,<2;&&::%%%-;<:<2332<<21:+*-,59855,257864432224422324222664",
"78871:;;<:>:%%%%-&%&;<2<<:=;*+OOO+>1555,489900076646663466666qqq",
"8ww87322:::%@O#%&$$$;22;:;&:%+O.O+:,,,,,348888746226433366646q66",
",233,>>>::>:#++%&&%;2842<>:::%OO-:3>:--+=<3<<211,;;22222;22<2244",
"::&;:>>42898877742<<246607470ww7973-##%=@@@@@@&&@@;666666qq66662",
">:>::,24:142,,>:2<;2480000000ww0973:====$%==<=&#@$26qqqq6qqqq622",
":::<>2>23787744,;;;236444700700073,><<<==<<=<=&&@@26666646qqq62;",
":;:>,2344444454>22222222=1171131==&;=<1<==&&====;;2;;;244642222;",
":>:22478888888726664434233131<<=#%*&==:<##&=441<222;$;22622;;;;;",
"44334488ww00ww985335444871337471=<111<111<=<141=;;22;222242222;&",
"4744444447843431:<2232331<37747033741111741111<<2;22224;4222622;",
"232322>2>12:>>::;<23322<><11<=<431<>1<<==170774362;2;262442;222;",
"888542237331,>::;:260662<<<;&&27522,,22;26q2222;;2224874473222=%",
"33444377442,>>:;%;246666;<;<;<<422,2,,22;6622622;22;4784441==<=&",
",11<>23422>::::;;:224222;;;<<2<<2,--;,2;22626222;;;2<233341<<<22",
",1>:::>>:::::<<<3222222222<<22222;---,;;;22262;,;222<<<<<3444434",
"3<>::;::=:::::2322224666666444665---;;2222;263:22444<<<2><331<<1",
"<:::::::%::::<2322222226444<2444,,,;;2226222632222442;<<<<<<<==<",
"332<32>>21::22::22222<2<<<<<22;&$+--;222262;<;;2<;;<;&&&>::><::1",
"0888885383:>22:%;2242662442474@X o+-$;;;;22;$@%<<;;;;&@&%%:333<3",
"8888887477,:<:%%22222626666204&@++;;;;2;11,=>&&<2;>44::><::<22,=",
"433444314>:%:>::2222222226224<@@$-;;22,,=7>=:==12>:22:>233<24431",
"21123442,,:-22,322;;;;;;662264<<;;;;22;;*=*+%#*>22>434343<>:::>:",
"33274888373253236222;;;;26222<;;,;;2:22;*7**%%*<:,44444253<<>:>:",
"73334444377473>3242222;;66222;&$<=&<222;77>>7>*7:,33331>321,<::;",
",,<:2><:,34133>4622222;;22222;;<<=<<222<=77**>>777731,13111,<::;",
"1>::;:;:17437448622;;2;;;;;$&&&;;<<<1<2<>7>**+*>8747224888888844",
"1>:::>::,7898878q42;;;;;22;;&$$;&=<11<<=*>*OO++:>,,4713w88888888",
"442;&;&&<4007ee7e622222;;$XX@$$$@&<2<<&&;&@XX @;;22;&324q8699889",
";;;;;22<<242<47422;22;222$@@$;;$&;242222;2;;$&;22;2&&<;<<<;,,:--",
";22266667742244222222;2666666666<2660666266q66622$$@&;@&$$%--+++",
"22246eq0007777746666622q222;22;$<246666qqqeeeeq64&$&==&&;;;;-+++",
"&;2;<26242442<222224622666622222<2244446q66q666;2;<<2<=<1<=*-&%@",
";;;;&&&&&&&@@@&;&@$266266662222224224<2<22222;;&;;2<<<@=&*@@%><:",
"262;&@@@&@@&&@&&@@$6666666666626644222<<2222;;;;;&2;&=&=%@@@=773",
"2222&;<<&&&<2<&&$$;6eq6eq6ee66664444644426666622;<2<<4<11<=*3871",
"62;;22;;;2;&;;&&$$;226266446222222242;;266266662444431341<<<<<>1",
";$@;;$@@@;;@&&&;2;;22;;22<;;;;;222242;222;;;2222<>>===>>====<114",
"2;;;;;@@&2<;;;<22222626622;;;;;264466222;;&;262;=1<<:=::=====114",
"622222;;266222<4;;2;226244;;;;;;44266;;22;;<4622<11<1<,,<=<===11",
"22;222;;26222222222222;;;;;;<;;<222422;;;;<222<;==:=,,,,,2,;=:<<",
";;22;22;222;262222222222<;;<22<222226626222222<;%%&:,,,:,55,:131",
"2222222;;22;2426$;;$;2;;2;<<422;242666662264622;-;:,,,,::55,,332",
"222;;2;;;22;<226$$;$;;22;&&<2422422426626426662;::>255,::553>22<",
";$;;;;&@&;4474442222222;;;;22422<<1<<<1<&<4<@X@@;%;<<44<2;$&;22;",
";;;;;;&&&<700000q66662622222222233334444477<@@ @%%&&;;<<<&$&2666",
";$X$&;;;@<600770666222222222464231344447777<@@@@&&=;<<<4<;$&;666",
";;$$;;<<;26642222222222222222424=<<<1<122<<=@@&=<<<3<<<22<;;2222",
"22222242777774;&;222422462222;;;%%%>::::<<<=&<<2<<<24<<&2;226622",
"66666666e000e4<;;222262262222;;$&%&:1::12<=<<;&<<;<47<&&;;226222",
"22226466767774<<;2;2222;222222;;<:<31<<22<<;<;&@<<<44<=&;2222222",
"2222222224477<<<;2;2;22222266442311441<243<<<<;&;=<42=&<22226666",
"4007707224<442<446q6qq66244882-@@%%:>><<<22<;;;;$$$;;$$;22226666",
"00e77774444477406646q662<<222;$oOO%%::><;22;&&&&;$$;2;22;;;26q66",
"7074447244<472<4q6666q62;;;222&o .O%&%;%;22;&@&@$XX$$;;;;226qqqq",
"<442<472<4<24<@&;;;;;2;$;$$&22<;=::<23222422;;;;;$$;;22222222222",
"<277000777077<XX@@@$@@$$;$@@;366w00888886q6222222226666622;;;;;;",
"<47eeee00e070<@@;;;;;;;;;;$&<36qwwww88886664;;22;2226622262;2;;2",
";<47707777244<&&;;;;;;;;22<<2233880888886662;2;2;2262662222;;;;;",
"<<<<<4444<&&<<&<2;;;2;$&;;<<;%%%%=>242>>;266226226666666266222;;"
};
